#define bomba_01_width 29
#define bomba_01_height 16
static unsigned short bomba_01_bits[] = {
   0xe000, 0x0000, 0xf800, 0x0003, 0xfe00, 0x000f, 0x0600, 0x000c, 0x6300,
   0x0018, 0x6300, 0x0018, 0x4180, 0x0033, 0xf980, 0x0033, 0x5980, 0x0030,
   0xc300, 0x0018, 0xc300, 0x0018, 0x0600, 0x000c, 0xfe00, 0x000f, 0xf800,
   0x0003, 0xff80, 0x003f, 0xff80, 0x003f };
